<svg width="21" height="21" viewBox="0 0 21 21" fill="none" xmlns="http://www.w3.org/2000/svg">
<path d="M12.4046 4.89221C13.2656 5.05987 14.0569 5.48014 14.6771 6.09923C15.2974 6.71832 15.7185 7.50806 15.8865 8.36739M12.4046 1.37305C14.1934 1.57138 15.8614 2.37088 17.1348 3.64027C18.4083 4.90967 19.2114 6.5735 19.4124 8.35859M18.5309 15.3793V18.0187C18.5319 18.2637 18.4816 18.5062 18.3833 18.7307C18.2849 18.9553 18.1407 19.1568 17.9598 19.3224C17.7789 19.4881 17.5653 19.6142 17.3327 19.6927C17.1002 19.7712 16.8538 19.8003 16.6093 19.7783C13.8968 19.4841 11.2913 18.559 9.00214 17.0773C6.87234 15.7265 5.06665 13.9243 3.71329 11.7986C2.22357 9.50338 1.29649 6.89021 1.00715 4.17078C0.985127 3.92749 1.0141 3.68229 1.09222 3.45078C1.17034 3.21928 1.2959 3.00655 1.46091 2.82613C1.62592 2.64571 1.82676 2.50156 2.05064 2.40286C2.27452 2.30416 2.51654 2.25307 2.76129 2.25284H5.40572C5.83351 2.24864 6.24823 2.39983 6.57258 2.67825C6.89694 2.95666 7.1088 3.34329 7.16867 3.76608C7.28029 4.61074 7.48728 5.44008 7.7857 6.23829C7.9043 6.55319 7.92997 6.89542 7.85967 7.22443C7.78936 7.55344 7.62604 7.85544 7.38904 8.09465L6.26957 9.21198C7.5244 11.4146 9.35161 13.2383 11.5584 14.4907L12.6779 13.3734C12.9176 13.1369 13.2201 12.9738 13.5498 12.9037C13.8794 12.8335 14.2223 12.8591 14.5378 12.9775C15.3375 13.2753 16.1685 13.4819 17.0148 13.5933C17.4429 13.6536 17.834 13.8689 18.1135 14.1982C18.3931 14.5275 18.5416 14.9478 18.5309 15.3793Z" stroke="#767676" stroke-width="1.2" stroke-linecap="round" stroke-linejoin="round"/>
</svg>
