<svg width="1136" height="154" viewBox="0 0 1136 154" fill="none" xmlns="http://www.w3.org/2000/svg">
<path d="M13.32 146H2.37V123.8H5.61V143.03H13.32V146ZM31.8101 137.63C31.8101 140.03 30.9401 142.1 29.2001 143.84C27.4601 145.56 25.3401 146.42 22.8401 146.42C20.3801 146.42 18.2701 145.56 16.5101 143.84C14.7501 142.1 13.8701 140.01 13.8701 137.57C13.8701 135.15 14.7501 133.11 16.5101 131.45C18.2901 129.77 20.4001 128.93 22.8401 128.93C25.3001 128.93 27.4101 129.77 29.1701 131.45C30.9301 133.13 31.8101 135.19 31.8101 137.63ZM26.9801 141.83C28.1201 140.65 28.6901 139.25 28.6901 137.63C28.6901 136.01 28.1201 134.63 26.9801 133.49C25.8401 132.35 24.4601 131.78 22.8401 131.78C21.2201 131.78 19.8401 132.36 18.7001 133.52C17.5601 134.66 16.9901 136.04 16.9901 137.66C16.9901 139.28 17.5601 140.67 18.7001 141.83C19.8401 142.99 21.2201 143.57 22.8401 143.57C24.4601 143.57 25.8401 142.99 26.9801 141.83ZM50.2242 140.51C49.6042 142.31 48.5542 143.75 47.0742 144.83C45.6142 145.89 43.9342 146.42 42.0342 146.42C39.5942 146.42 37.5642 145.58 35.9442 143.9C34.3242 142.2 33.5142 140.12 33.5142 137.66C33.5142 135.22 34.3242 133.16 35.9442 131.48C37.5842 129.78 39.6242 128.93 42.0642 128.93C43.9042 128.93 45.6042 129.49 47.1642 130.61C48.7442 131.73 49.7642 133.16 50.2242 134.9H46.7742C45.7742 132.82 44.2142 131.78 42.0942 131.78C40.4342 131.78 39.1042 132.34 38.1042 133.46C37.1242 134.58 36.6342 135.98 36.6342 137.66C36.6342 139.3 37.1242 140.7 38.1042 141.86C39.1042 143 40.4142 143.57 42.0342 143.57C43.0942 143.57 44.0342 143.3 44.8542 142.76C45.6742 142.22 46.3042 141.47 46.7442 140.51H50.2242ZM69.3628 146H66.2428V143.42H66.1828C65.6228 144.4 64.8328 145.15 63.8128 145.67C62.8128 146.17 61.7228 146.42 60.5428 146.42C58.0428 146.42 55.9428 145.6 54.2428 143.96C52.5628 142.32 51.7228 140.25 51.7228 137.75C51.7228 135.23 52.5628 133.13 54.2428 131.45C55.9228 129.77 58.0228 128.93 60.5428 128.93C61.7028 128.93 62.7828 129.17 63.7828 129.65C64.7828 130.11 65.5828 130.8 66.1828 131.72H66.2428V129.38H69.3628V146ZM66.3028 137.72C66.3028 136.04 65.7628 134.63 64.6828 133.49C63.6028 132.35 62.2228 131.78 60.5428 131.78C58.9228 131.78 57.5628 132.36 56.4628 133.52C55.3828 134.68 54.8428 136.08 54.8428 137.72C54.8428 139.3 55.3928 140.67 56.4928 141.83C57.5928 142.99 58.9328 143.57 60.5128 143.57C62.1328 143.57 63.5028 143 64.6228 141.86C65.7428 140.72 66.3028 139.34 66.3028 137.72ZM79.1501 132.23H76.4201V146H73.3001V132.23H71.0501V129.38H73.3001V123.8H76.4201V129.38H79.1501V132.23ZM83.7804 127.46H80.6604V123.8H83.7804V127.46ZM83.7804 146H80.6604V129.38H83.7804V146ZM104.279 137.63C104.279 140.03 103.409 142.1 101.669 143.84C99.9288 145.56 97.8088 146.42 95.3088 146.42C92.8488 146.42 90.7388 145.56 88.9788 143.84C87.2188 142.1 86.3388 140.01 86.3388 137.57C86.3388 135.15 87.2188 133.11 88.9788 131.45C90.7588 129.77 92.8688 128.93 95.3088 128.93C97.7688 128.93 99.8788 129.77 101.639 131.45C103.399 133.13 104.279 135.19 104.279 137.63ZM99.4488 141.83C100.589 140.65 101.159 139.25 101.159 137.63C101.159 136.01 100.589 134.63 99.4488 133.49C98.3088 132.35 96.9288 131.78 95.3088 131.78C93.6888 131.78 92.3088 132.36 91.1688 133.52C90.0288 134.66 89.4588 136.04 89.4588 137.66C89.4588 139.28 90.0288 140.67 91.1688 141.83C92.3088 142.99 93.6888 143.57 95.3088 143.57C96.9288 143.57 98.3088 142.99 99.4488 141.83ZM121.583 146H118.463V136.97C118.463 133.51 117.083 131.78 114.323 131.78C112.863 131.78 111.763 132.27 111.023 133.25C110.303 134.21 109.943 135.44 109.943 136.94V146H106.823V129.38H109.733V131.15H109.793C110.913 129.67 112.533 128.93 114.653 128.93C117.313 128.93 119.273 129.92 120.533 131.9C121.233 132.98 121.583 134.4 121.583 136.16V146ZM155.811 129.59L149.541 146H147.171L143.691 135.08H143.631L140.211 146H137.841L131.601 129.59H133.791L138.951 143.33H139.011L142.761 131.57H144.591L148.371 143.33H148.431L153.651 129.59H155.811ZM173.963 137.78C173.963 140.14 173.113 142.17 171.413 143.87C169.733 145.55 167.713 146.39 165.353 146.39C163.033 146.39 161.023 145.55 159.323 143.87C157.643 142.19 156.803 140.2 156.803 137.9C156.803 135.52 157.633 133.47 159.293 131.75C160.953 130.03 162.973 129.17 165.353 129.17C167.693 129.17 169.713 130.02 171.413 131.72C173.113 133.42 173.963 135.44 173.963 137.78ZM171.863 137.69C171.863 135.89 171.223 134.34 169.943 133.04C168.683 131.72 167.163 131.06 165.383 131.06C163.563 131.06 162.023 131.74 160.763 133.1C159.523 134.44 158.903 136.03 158.903 137.87C158.903 139.67 159.533 141.23 160.793 142.55C162.053 143.85 163.583 144.5 165.383 144.5C167.243 144.5 168.783 143.84 170.003 142.52C171.243 141.18 171.863 139.57 171.863 137.69ZM183.331 131.39C181.871 131.51 180.721 132.01 179.881 132.89C179.061 133.77 178.651 134.94 178.651 136.4V146H176.551V129.59H178.651V131.96H178.711C179.131 130.98 179.711 130.29 180.451 129.89C181.191 129.49 182.151 129.25 183.331 129.17V131.39ZM187.954 146H185.854V123.8H187.954V146ZM207.849 146H205.749V143.12H205.689C204.989 144.16 204.059 144.97 202.899 145.55C201.759 146.11 200.559 146.39 199.299 146.39C196.819 146.39 194.729 145.57 193.029 143.93C191.329 142.27 190.479 140.21 190.479 137.75C190.479 135.31 191.339 133.27 193.059 131.63C194.779 129.99 196.859 129.17 199.299 129.17C200.579 129.17 201.789 129.45 202.929 130.01C204.069 130.57 204.989 131.37 205.689 132.41H205.749V123.8H207.849V146ZM203.949 142.55C205.229 141.23 205.869 139.65 205.869 137.81C205.869 135.97 205.229 134.39 203.949 133.07C202.689 131.73 201.139 131.06 199.299 131.06C197.359 131.06 195.749 131.71 194.469 133.01C193.209 134.29 192.579 135.9 192.579 137.84C192.579 139.76 193.219 141.35 194.499 142.61C195.779 143.87 197.379 144.5 199.299 144.5C201.139 144.5 202.689 143.85 203.949 142.55ZM233.846 129.59L227.576 146H225.206L221.726 135.08H221.666L218.246 146H215.876L209.636 129.59H211.826L216.986 143.33H217.046L220.796 131.57H222.626L226.406 143.33H226.466L231.686 129.59H233.846ZM237.628 127.58H235.528V123.8H237.628V127.58ZM237.628 146H235.528V129.59H237.628V146ZM257.524 146H255.424V143.12H255.364C254.664 144.16 253.734 144.97 252.574 145.55C251.434 146.11 250.234 146.39 248.974 146.39C246.494 146.39 244.404 145.57 242.704 143.93C241.004 142.27 240.154 140.21 240.154 137.75C240.154 135.31 241.014 133.27 242.734 131.63C244.454 129.99 246.534 129.17 248.974 129.17C250.254 129.17 251.464 129.45 252.604 130.01C253.744 130.57 254.664 131.37 255.364 132.41H255.424V123.8H257.524V146ZM253.624 142.55C254.904 141.23 255.544 139.65 255.544 137.81C255.544 135.97 254.904 134.39 253.624 133.07C252.364 131.73 250.814 131.06 248.974 131.06C247.034 131.06 245.424 131.71 244.144 133.01C242.884 134.29 242.254 135.9 242.254 137.84C242.254 139.76 242.894 141.35 244.174 142.61C245.454 143.87 247.054 144.5 248.974 144.5C250.814 144.5 252.364 143.85 253.624 142.55ZM277.191 137.96C277.191 138.04 277.181 138.14 277.161 138.26C277.161 138.38 277.161 138.48 277.161 138.56H262.221C262.301 140.16 262.971 141.55 264.231 142.73C265.511 143.91 266.961 144.5 268.581 144.5C269.881 144.5 271.071 144.15 272.151 143.45C273.251 142.75 274.021 141.81 274.461 140.63H276.681C276.081 142.35 275.041 143.74 273.561 144.8C272.081 145.86 270.431 146.39 268.611 146.39C266.251 146.39 264.231 145.55 262.551 143.87C260.891 142.19 260.061 140.17 260.061 137.81C260.061 135.45 260.891 133.42 262.551 131.72C264.231 130.02 266.241 129.17 268.581 129.17C270.961 129.17 272.991 130.04 274.671 131.78C276.351 133.52 277.191 135.58 277.191 137.96ZM275.031 136.67C274.751 135.05 274.021 133.71 272.841 132.65C271.661 131.59 270.251 131.06 268.611 131.06C266.991 131.06 265.581 131.59 264.381 132.65C263.201 133.71 262.481 135.05 262.221 136.67H275.031Z" fill="#222222"/>
<path d="M127.53 89H74.84V75.14L103.88 48.08C109.893 42.5067 112.9 37.1533 112.9 32.02C112.9 28.4267 111.8 25.4933 109.6 23.22C107.4 20.9467 104.54 19.81 101.02 19.81C98.7467 19.81 96.62 20.3967 94.64 21.57C92.66 22.7433 91.1567 24.3567 90.13 26.41C89.1033 28.4633 88.59 31.5067 88.59 35.54H74.07C73.9967 34.9533 73.96 34.0733 73.96 32.9C73.96 25.42 76.5267 19.0767 81.66 13.87C86.8667 8.58999 93.21 5.94999 100.69 5.94999C108.17 5.94999 114.513 8.55333 119.72 13.76C124.927 18.8933 127.53 25.2 127.53 32.68C127.53 38.0333 126.137 42.91 123.35 47.31C120.563 51.6367 116.713 56 111.8 60.4L95.3 75.14H127.53V89ZM187.543 33.34V63.37C187.543 71.3633 184.976 77.9267 179.843 83.06C174.783 88.12 168.256 90.65 160.263 90.65C152.343 90.65 145.449 87.68 139.583 81.74C135.109 77.1933 132.873 70.8133 132.873 62.6V33.34C132.873 25.1267 135.439 18.5267 140.573 13.54C145.779 8.47999 152.489 5.94999 160.703 5.94999C168.476 5.94999 174.893 8.58999 179.953 13.87C185.013 19.0767 187.543 25.5667 187.543 33.34ZM172.913 62.05V33.45C172.913 29.71 171.739 26.52 169.393 23.88C167.046 21.1667 164.039 19.81 160.373 19.81C156.339 19.81 153.186 21.1667 150.913 23.88C148.639 26.52 147.503 29.8933 147.503 34V61.72C147.503 66.0467 148.566 69.64 150.693 72.5C152.893 75.36 156.083 76.79 160.263 76.79C164.443 76.79 167.596 75.4333 169.723 72.72C171.849 69.9333 172.913 66.3767 172.913 62.05Z" fill="#222222"/>
<path d="M251.05 49.91H227.07V74H219.59V49.91H195.61V42.43H219.59V18.34H227.07V42.43H251.05V49.91Z" fill="#EC2232"/>
<path d="M443.76 123.8L435.96 138.59V146H433.74V138.59L426.03 123.8H428.49L434.82 136.25L441.33 123.8H443.76ZM458.641 137.96C458.641 138.04 458.631 138.14 458.611 138.26C458.611 138.38 458.611 138.48 458.611 138.56H443.671C443.751 140.16 444.421 141.55 445.681 142.73C446.961 143.91 448.411 144.5 450.031 144.5C451.331 144.5 452.521 144.15 453.601 143.45C454.701 142.75 455.471 141.81 455.911 140.63H458.131C457.531 142.35 456.491 143.74 455.011 144.8C453.531 145.86 451.881 146.39 450.061 146.39C447.701 146.39 445.681 145.55 444.001 143.87C442.341 142.19 441.511 140.17 441.511 137.81C441.511 135.45 442.341 133.42 444.001 131.72C445.681 130.02 447.691 129.17 450.031 129.17C452.411 129.17 454.441 130.04 456.121 131.78C457.801 133.52 458.641 135.58 458.641 137.96ZM456.481 136.67C456.201 135.05 455.471 133.71 454.291 132.65C453.111 131.59 451.701 131.06 450.061 131.06C448.441 131.06 447.031 131.59 445.831 132.65C444.651 133.71 443.931 135.05 443.671 136.67H456.481ZM477.912 146H475.812V143.12H475.752C475.052 144.18 474.132 144.99 472.992 145.55C471.872 146.11 470.662 146.39 469.362 146.39C466.882 146.39 464.792 145.57 463.092 143.93C461.392 142.27 460.542 140.21 460.542 137.75C460.542 135.31 461.402 133.27 463.122 131.63C464.842 129.99 466.922 129.17 469.362 129.17C470.682 129.17 471.902 129.45 473.022 130.01C474.162 130.57 475.072 131.39 475.752 132.47H475.812V129.59H477.912V146ZM474.012 142.55C475.292 141.23 475.932 139.65 475.932 137.81C475.932 135.97 475.292 134.39 474.012 133.07C472.752 131.73 471.202 131.06 469.362 131.06C467.422 131.06 465.812 131.71 464.532 133.01C463.272 134.29 462.642 135.9 462.642 137.84C462.642 139.76 463.282 141.35 464.562 142.61C465.842 143.87 467.442 144.5 469.362 144.5C471.202 144.5 472.752 143.85 474.012 142.55ZM487.891 131.39C486.431 131.51 485.281 132.01 484.441 132.89C483.621 133.77 483.211 134.94 483.211 136.4V146H481.111V129.59H483.211V131.96H483.271C483.691 130.98 484.271 130.29 485.011 129.89C485.751 129.49 486.711 129.25 487.891 129.17V131.39ZM513.725 137.78C513.725 140.14 512.875 142.17 511.175 143.87C509.495 145.55 507.475 146.39 505.115 146.39C502.795 146.39 500.785 145.55 499.085 143.87C497.405 142.19 496.565 140.2 496.565 137.9C496.565 135.52 497.395 133.47 499.055 131.75C500.715 130.03 502.735 129.17 505.115 129.17C507.455 129.17 509.475 130.02 511.175 131.72C512.875 133.42 513.725 135.44 513.725 137.78ZM511.625 137.69C511.625 135.89 510.985 134.34 509.705 133.04C508.445 131.72 506.925 131.06 505.145 131.06C503.325 131.06 501.785 131.74 500.525 133.1C499.285 134.44 498.665 136.03 498.665 137.87C498.665 139.67 499.295 141.23 500.555 142.55C501.815 143.85 503.345 144.5 505.145 144.5C507.005 144.5 508.545 143.84 509.765 142.52C511.005 141.18 511.625 139.57 511.625 137.69ZM523.783 131.48H519.583V146H517.483V131.48H514.933V129.59H517.483C517.523 128.49 517.613 127.67 517.753 127.13C518.413 124.69 520.423 123.45 523.783 123.41V125.36C522.283 125.36 521.203 125.68 520.543 126.32C519.903 126.96 519.583 128.01 519.583 129.47V129.59H523.783V131.48ZM544.837 146H532.867V123.8H544.837V126.77H536.107V133.31H544.837V136.28H536.107V143.03H544.837V146ZM561.383 146H557.723L553.613 140.09L549.593 146H545.963L551.723 137.48L546.173 129.38H549.953L553.613 134.84L557.243 129.38H561.023L555.593 137.48L561.383 146ZM580.27 137.9C580.27 140.26 579.46 142.27 577.84 143.93C576.24 145.59 574.25 146.42 571.87 146.42C570.67 146.42 569.53 146.19 568.45 145.73C567.39 145.25 566.58 144.54 566.02 143.6H565.96V151.55H562.84V129.38H565.69V131.93H565.75C567.15 129.93 569.12 128.93 571.66 128.93C574.18 128.93 576.24 129.79 577.84 131.51C579.46 133.23 580.27 135.36 580.27 137.9ZM577.15 137.72C577.15 136.12 576.59 134.73 575.47 133.55C574.37 132.37 573.03 131.78 571.45 131.78C569.87 131.78 568.55 132.36 567.49 133.52C566.43 134.68 565.9 136.06 565.9 137.66C565.9 139.3 566.43 140.7 567.49 141.86C568.57 143 569.92 143.57 571.54 143.57C573.14 143.57 574.47 143 575.53 141.86C576.61 140.72 577.15 139.34 577.15 137.72ZM598.946 137.48C598.946 138 598.916 138.52 598.856 139.04H585.086C585.406 140.36 586.056 141.45 587.036 142.31C588.036 143.15 589.206 143.57 590.546 143.57C591.526 143.57 592.446 143.32 593.306 142.82C594.186 142.32 594.846 141.64 595.286 140.78H598.406C597.766 142.48 596.726 143.85 595.286 144.89C593.846 145.91 592.226 146.42 590.426 146.42C588.086 146.42 586.086 145.55 584.426 143.81C582.786 142.07 581.966 140.02 581.966 137.66C581.966 135.24 582.786 133.18 584.426 131.48C586.066 129.78 588.086 128.93 590.486 128.93C592.826 128.93 594.816 129.77 596.456 131.45C598.116 133.13 598.946 135.14 598.946 137.48ZM595.826 136.64C595.746 135.28 595.166 134.13 594.086 133.19C593.026 132.25 591.816 131.78 590.456 131.78C589.096 131.78 587.876 132.25 586.796 133.19C585.736 134.13 585.166 135.28 585.086 136.64H595.826ZM608.655 132.14C607.875 132.14 607.125 132.34 606.405 132.74C605.185 133.36 604.575 134.75 604.575 136.91V146H601.455V129.38H604.365V130.88H604.425C605.305 129.64 606.715 128.99 608.655 128.93V132.14ZM614.228 127.46H611.108V123.8H614.228V127.46ZM614.228 146H611.108V129.38H614.228V146ZM633.797 137.48C633.797 138 633.767 138.52 633.707 139.04H619.937C620.257 140.36 620.907 141.45 621.887 142.31C622.887 143.15 624.057 143.57 625.397 143.57C626.377 143.57 627.297 143.32 628.157 142.82C629.037 142.32 629.697 141.64 630.137 140.78H633.257C632.617 142.48 631.577 143.85 630.137 144.89C628.697 145.91 627.077 146.42 625.277 146.42C622.937 146.42 620.937 145.55 619.277 143.81C617.637 142.07 616.817 140.02 616.817 137.66C616.817 135.24 617.637 133.18 619.277 131.48C620.917 129.78 622.937 128.93 625.337 128.93C627.677 128.93 629.667 129.77 631.307 131.45C632.967 133.13 633.797 135.14 633.797 137.48ZM630.677 136.64C630.597 135.28 630.017 134.13 628.937 133.19C627.877 132.25 626.667 131.78 625.307 131.78C623.947 131.78 622.727 132.25 621.647 133.19C620.587 134.13 620.017 135.28 619.937 136.64H630.677ZM651.035 146H647.915V136.97C647.915 133.51 646.535 131.78 643.775 131.78C642.315 131.78 641.215 132.27 640.475 133.25C639.755 134.21 639.395 135.44 639.395 136.94V146H636.275V129.38H639.185V131.15H639.245C640.365 129.67 641.985 128.93 644.105 128.93C646.765 128.93 648.725 129.92 649.985 131.9C650.685 132.98 651.035 134.4 651.035 136.16V146ZM670.266 140.51C669.646 142.31 668.596 143.75 667.116 144.83C665.656 145.89 663.976 146.42 662.076 146.42C659.636 146.42 657.606 145.58 655.986 143.9C654.366 142.2 653.556 140.12 653.556 137.66C653.556 135.22 654.366 133.16 655.986 131.48C657.626 129.78 659.666 128.93 662.106 128.93C663.946 128.93 665.646 129.49 667.206 130.61C668.786 131.73 669.806 133.16 670.266 134.9H666.816C665.816 132.82 664.256 131.78 662.136 131.78C660.476 131.78 659.146 132.34 658.146 133.46C657.166 134.58 656.676 135.98 656.676 137.66C656.676 139.3 657.166 140.7 658.146 141.86C659.146 143 660.456 143.57 662.076 143.57C663.136 143.57 664.076 143.3 664.896 142.76C665.716 142.22 666.346 141.47 666.786 140.51H670.266ZM688.774 137.48C688.774 138 688.744 138.52 688.684 139.04H674.914C675.234 140.36 675.884 141.45 676.864 142.31C677.864 143.15 679.034 143.57 680.374 143.57C681.354 143.57 682.274 143.32 683.134 142.82C684.014 142.32 684.674 141.64 685.114 140.78H688.234C687.594 142.48 686.554 143.85 685.114 144.89C683.674 145.91 682.054 146.42 680.254 146.42C677.914 146.42 675.914 145.55 674.254 143.81C672.614 142.07 671.794 140.02 671.794 137.66C671.794 135.24 672.614 133.18 674.254 131.48C675.894 129.78 677.914 128.93 680.314 128.93C682.654 128.93 684.644 129.77 686.284 131.45C687.944 133.13 688.774 135.14 688.774 137.48ZM685.654 136.64C685.574 135.28 684.994 134.13 683.914 133.19C682.854 132.25 681.644 131.78 680.284 131.78C678.924 131.78 677.704 132.25 676.624 133.19C675.564 134.13 674.994 135.28 674.914 136.64H685.654Z" fill="#222222"/>
<path d="M544.53 89H491.84V75.14L520.88 48.08C526.893 42.5067 529.9 37.1533 529.9 32.02C529.9 28.4267 528.8 25.4933 526.6 23.22C524.4 20.9467 521.54 19.81 518.02 19.81C515.747 19.81 513.62 20.3967 511.64 21.57C509.66 22.7433 508.157 24.3567 507.13 26.41C506.103 28.4633 505.59 31.5067 505.59 35.54H491.07C490.997 34.9533 490.96 34.0733 490.96 32.9C490.96 25.42 493.527 19.0767 498.66 13.87C503.867 8.58999 510.21 5.94999 517.69 5.94999C525.17 5.94999 531.513 8.55333 536.72 13.76C541.927 18.8933 544.53 25.2 544.53 32.68C544.53 38.0333 543.137 42.91 540.35 47.31C537.563 51.6367 533.713 56 528.8 60.4L512.3 75.14H544.53V89ZM604.873 63.37C604.873 71.1433 602.159 77.6333 596.733 82.84C591.306 88.0467 584.706 90.65 576.933 90.65C569.453 90.65 563.109 88.1567 557.903 83.17C552.696 78.1833 549.873 71.95 549.433 64.47H564.063C564.429 67.9167 565.859 70.85 568.353 73.27C570.846 75.6167 573.816 76.79 577.263 76.79C580.783 76.79 583.826 75.47 586.393 72.83C588.959 70.19 590.243 67.11 590.243 63.59C590.243 59.1167 588.703 55.7433 585.623 53.47C582.543 51.1967 578.693 50.06 574.073 50.06H571.653V36.2H574.183C577.116 36.2 579.536 35.4667 581.443 34C583.423 32.5333 584.413 30.37 584.413 27.51C584.413 22.3767 581.993 19.81 577.153 19.81C575.099 19.81 573.413 20.5433 572.093 22.01C570.773 23.4767 570.039 25.2367 569.893 27.29H555.263C556.143 17.0233 560.873 10.35 569.453 7.27C572.093 6.38999 574.586 5.94999 576.933 5.94999C582.946 5.94999 588.116 8.11333 592.443 12.44C596.843 16.7667 599.043 21.9367 599.043 27.95C599.043 34.1833 596.696 38.9867 592.003 42.36C596.256 44.1933 599.446 46.98 601.573 50.72C603.773 54.3867 604.873 58.6033 604.873 63.37Z" fill="#222222"/>
<path d="M668.05 49.91H644.07V74H636.59V49.91H612.61V42.43H636.59V18.34H644.07V42.43H668.05V49.91Z" fill="#EC2232"/>
<path d="M861.84 135.8C861.6 138.82 860.34 141.34 858.06 143.36C855.8 145.38 853.15 146.39 850.11 146.39C848.03 146.39 846.07 145.89 844.23 144.89C842.41 143.87 840.95 142.47 839.85 140.69C838.75 138.91 838.2 136.98 838.2 134.9C838.2 131.7 839.37 128.99 841.71 126.77C844.07 124.53 846.86 123.41 850.08 123.41C851.82 123.41 853.48 123.77 855.06 124.49C856.64 125.19 858 126.19 859.14 127.49C859.78 128.21 860.26 128.95 860.58 129.71H858C857.24 128.39 856.13 127.35 854.67 126.59C853.21 125.81 851.69 125.42 850.11 125.42C847.47 125.42 845.19 126.35 843.27 128.21C841.37 130.05 840.42 132.29 840.42 134.93C840.42 137.59 841.38 139.83 843.3 141.65C845.22 143.47 847.52 144.38 850.2 144.38C852.2 144.38 854.07 143.76 855.81 142.52C857.57 141.28 858.69 139.71 859.17 137.81H846.78V135.8H861.84ZM866.612 146H864.512V123.8H866.612V146ZM886.388 137.78C886.388 140.14 885.538 142.17 883.838 143.87C882.158 145.55 880.138 146.39 877.778 146.39C875.458 146.39 873.448 145.55 871.748 143.87C870.068 142.19 869.228 140.2 869.228 137.9C869.228 135.52 870.058 133.47 871.718 131.75C873.378 130.03 875.398 129.17 877.778 129.17C880.118 129.17 882.138 130.02 883.838 131.72C885.538 133.42 886.388 135.44 886.388 137.78ZM884.288 137.69C884.288 135.89 883.648 134.34 882.368 133.04C881.108 131.72 879.588 131.06 877.808 131.06C875.988 131.06 874.448 131.74 873.188 133.1C871.948 134.44 871.328 136.03 871.328 137.87C871.328 139.67 871.958 141.23 873.218 142.55C874.478 143.85 876.008 144.5 877.808 144.5C879.668 144.5 881.208 143.84 882.428 142.52C883.668 141.18 884.288 139.57 884.288 137.69ZM906.436 137.75C906.436 140.21 905.586 142.27 903.886 143.93C902.186 145.57 900.096 146.39 897.616 146.39C896.336 146.39 895.126 146.11 893.986 145.55C892.866 144.97 891.946 144.16 891.226 143.12H891.166V146H889.066V123.8H891.166V132.47H891.226C891.966 131.43 892.886 130.62 893.986 130.04C895.106 129.46 896.316 129.17 897.616 129.17C900.056 129.17 902.136 129.99 903.856 131.63C905.576 133.27 906.436 135.31 906.436 137.75ZM904.336 137.84C904.336 135.9 903.696 134.29 902.416 133.01C901.156 131.71 899.556 131.06 897.616 131.06C895.776 131.06 894.216 131.73 892.936 133.07C891.676 134.39 891.046 135.97 891.046 137.81C891.046 139.65 891.676 141.23 892.936 142.55C894.216 143.85 895.776 144.5 897.616 144.5C899.536 144.5 901.136 143.87 902.416 142.61C903.696 141.35 904.336 139.76 904.336 137.84ZM925.505 146H923.405V143.12H923.345C922.645 144.18 921.725 144.99 920.585 145.55C919.465 146.11 918.255 146.39 916.955 146.39C914.475 146.39 912.385 145.57 910.685 143.93C908.985 142.27 908.135 140.21 908.135 137.75C908.135 135.31 908.995 133.27 910.715 131.63C912.435 129.99 914.515 129.17 916.955 129.17C918.275 129.17 919.495 129.45 920.615 130.01C921.755 130.57 922.665 131.39 923.345 132.47H923.405V129.59H925.505V146ZM921.605 142.55C922.885 141.23 923.525 139.65 923.525 137.81C923.525 135.97 922.885 134.39 921.605 133.07C920.345 131.73 918.795 131.06 916.955 131.06C915.015 131.06 913.405 131.71 912.125 133.01C910.865 134.29 910.235 135.9 910.235 137.84C910.235 139.76 910.875 141.35 912.155 142.61C913.435 143.87 915.035 144.5 916.955 144.5C918.795 144.5 920.345 143.85 921.605 142.55ZM930.804 146H928.704V123.8H930.804V146ZM958.09 146H955.87V135.59H944.38V146H942.16V123.8H944.38V133.58H955.87V123.8H958.09V146ZM978.389 146H976.289V143.12H976.229C975.529 144.18 974.609 144.99 973.469 145.55C972.349 146.11 971.139 146.39 969.839 146.39C967.359 146.39 965.269 145.57 963.569 143.93C961.869 142.27 961.019 140.21 961.019 137.75C961.019 135.31 961.879 133.27 963.599 131.63C965.319 129.99 967.399 129.17 969.839 129.17C971.159 129.17 972.379 129.45 973.499 130.01C974.639 130.57 975.549 131.39 976.229 132.47H976.289V129.59H978.389V146ZM974.489 142.55C975.769 141.23 976.409 139.65 976.409 137.81C976.409 135.97 975.769 134.39 974.489 133.07C973.229 131.73 971.679 131.06 969.839 131.06C967.899 131.06 966.289 131.71 965.009 133.01C963.749 134.29 963.119 135.9 963.119 137.84C963.119 139.76 963.759 141.35 965.039 142.61C966.319 143.87 967.919 144.5 969.839 144.5C971.679 144.5 973.229 143.85 974.489 142.55ZM998.927 137.75C998.927 140.21 998.077 142.27 996.377 143.93C994.677 145.57 992.587 146.39 990.107 146.39C988.827 146.39 987.617 146.11 986.477 145.55C985.357 144.97 984.437 144.16 983.717 143.12H983.657V151.76H981.557V129.59H983.657V132.47H983.717C984.457 131.41 985.377 130.6 986.477 130.04C987.597 129.46 988.807 129.17 990.107 129.17C992.547 129.17 994.627 129.99 996.347 131.63C998.067 133.27 998.927 135.31 998.927 137.75ZM996.827 137.84C996.827 135.9 996.187 134.29 994.907 133.01C993.647 131.71 992.047 131.06 990.107 131.06C988.267 131.06 986.707 131.73 985.427 133.07C984.167 134.39 983.537 135.97 983.537 137.81C983.537 139.65 984.167 141.23 985.427 142.55C986.707 143.85 988.267 144.5 990.107 144.5C992.027 144.5 993.627 143.87 994.907 142.61C996.187 141.35 996.827 139.76 996.827 137.84ZM1018.78 137.75C1018.78 140.21 1017.93 142.27 1016.23 143.93C1014.53 145.57 1012.44 146.39 1009.96 146.39C1008.68 146.39 1007.47 146.11 1006.33 145.55C1005.21 144.97 1004.29 144.16 1003.57 143.12H1003.51V151.76H1001.41V129.59H1003.51V132.47H1003.57C1004.31 131.41 1005.23 130.6 1006.33 130.04C1007.45 129.46 1008.66 129.17 1009.96 129.17C1012.4 129.17 1014.48 129.99 1016.2 131.63C1017.92 133.27 1018.78 135.31 1018.78 137.75ZM1016.68 137.84C1016.68 135.9 1016.04 134.29 1014.76 133.01C1013.5 131.71 1011.9 131.06 1009.96 131.06C1008.12 131.06 1006.56 131.73 1005.28 133.07C1004.02 134.39 1003.39 135.97 1003.39 137.81C1003.39 139.65 1004.02 141.23 1005.28 142.55C1006.56 143.85 1008.12 144.5 1009.96 144.5C1011.88 144.5 1013.48 143.87 1014.76 142.61C1016.04 141.35 1016.68 139.76 1016.68 137.84ZM1035.03 129.59L1025.52 151.76H1023.33L1026.18 145.46L1019.79 129.59H1022.01L1027.23 142.67L1032.81 129.59H1035.03ZM1065.31 129.47H1061.41C1059.63 127.39 1057.55 126.35 1055.17 126.35C1052.85 126.35 1050.89 127.18 1049.29 128.84C1047.71 130.5 1046.92 132.5 1046.92 134.84C1046.92 137.14 1047.71 139.15 1049.29 140.87C1050.89 142.59 1052.83 143.45 1055.11 143.45C1056.25 143.45 1057.35 143.19 1058.41 142.67C1059.49 142.13 1060.41 141.41 1061.17 140.51H1065.16C1064.1 142.37 1062.68 143.82 1060.9 144.86C1059.14 145.9 1057.2 146.42 1055.08 146.42C1051.94 146.42 1049.25 145.28 1047.01 143C1044.79 140.7 1043.68 137.97 1043.68 134.81C1043.68 131.63 1044.79 128.93 1047.01 126.71C1049.25 124.49 1051.95 123.38 1055.11 123.38C1057.63 123.38 1059.89 124.1 1061.89 125.54C1063.23 126.5 1064.37 127.81 1065.31 129.47ZM1070.54 146H1067.42V123.8H1070.54V146ZM1077.09 127.46H1073.97V123.8H1077.09V127.46ZM1077.09 146H1073.97V129.38H1077.09V146ZM1096.65 137.48C1096.65 138 1096.62 138.52 1096.56 139.04H1082.79C1083.11 140.36 1083.76 141.45 1084.74 142.31C1085.74 143.15 1086.91 143.57 1088.25 143.57C1089.23 143.57 1090.15 143.32 1091.01 142.82C1091.89 142.32 1092.55 141.64 1092.99 140.78H1096.11C1095.47 142.48 1094.43 143.85 1092.99 144.89C1091.55 145.91 1089.93 146.42 1088.13 146.42C1085.79 146.42 1083.79 145.55 1082.13 143.81C1080.49 142.07 1079.67 140.02 1079.67 137.66C1079.67 135.24 1080.49 133.18 1082.13 131.48C1083.77 129.78 1085.79 128.93 1088.19 128.93C1090.53 128.93 1092.52 129.77 1094.16 131.45C1095.82 133.13 1096.65 135.14 1096.65 137.48ZM1093.53 136.64C1093.45 135.28 1092.87 134.13 1091.79 133.19C1090.73 132.25 1089.52 131.78 1088.16 131.78C1086.8 131.78 1085.58 132.25 1084.5 133.19C1083.44 134.13 1082.87 135.28 1082.79 136.64H1093.53ZM1113.89 146H1110.77V136.97C1110.77 133.51 1109.39 131.78 1106.63 131.78C1105.17 131.78 1104.07 132.27 1103.33 133.25C1102.61 134.21 1102.25 135.44 1102.25 136.94V146H1099.13V129.38H1102.04V131.15H1102.1C1103.22 129.67 1104.84 128.93 1106.96 128.93C1109.62 128.93 1111.58 129.92 1112.84 131.9C1113.54 132.98 1113.89 134.4 1113.89 136.16V146ZM1123.49 132.23H1120.76V146H1117.64V132.23H1115.39V129.38H1117.64V123.8H1120.76V129.38H1123.49V132.23ZM1135.05 141.11C1135.05 142.71 1134.52 144 1133.46 144.98C1132.42 145.94 1131.09 146.42 1129.47 146.42C1128.79 146.42 1128.08 146.29 1127.34 146.03C1126.12 145.59 1125.19 144.9 1124.55 143.96C1123.91 143 1123.59 141.86 1123.59 140.54H1126.71C1126.77 141.46 1127.03 142.2 1127.49 142.76C1127.97 143.3 1128.65 143.57 1129.53 143.57C1130.23 143.57 1130.8 143.37 1131.24 142.97C1131.7 142.55 1131.93 141.99 1131.93 141.29C1131.93 140.67 1131.67 140.16 1131.15 139.76C1130.63 139.36 1130 139.04 1129.26 138.8C1128.52 138.56 1127.77 138.28 1127.01 137.96C1126.27 137.64 1125.64 137.13 1125.12 136.43C1124.6 135.71 1124.34 134.81 1124.34 133.73C1124.34 132.35 1124.86 131.21 1125.9 130.31C1126.94 129.39 1128.16 128.93 1129.56 128.93C1131 128.93 1132.2 129.39 1133.16 130.31C1134.14 131.21 1134.64 132.37 1134.66 133.79H1131.54C1131.46 133.17 1131.24 132.68 1130.88 132.32C1130.52 131.96 1130.03 131.78 1129.41 131.78C1128.87 131.78 1128.41 131.94 1128.03 132.26C1127.65 132.58 1127.46 133.01 1127.46 133.55C1127.46 133.69 1127.47 133.83 1127.49 133.97C1127.53 134.09 1127.57 134.2 1127.61 134.3C1127.65 134.4 1127.71 134.5 1127.79 134.6C1127.89 134.7 1127.97 134.78 1128.03 134.84C1128.09 134.9 1128.19 134.97 1128.33 135.05C1128.47 135.13 1128.57 135.19 1128.63 135.23C1128.69 135.25 1128.81 135.3 1128.99 135.38C1129.17 135.44 1129.28 135.48 1129.32 135.5C1129.38 135.5 1129.51 135.54 1129.71 135.62C1129.91 135.68 1130.02 135.71 1130.04 135.71C1131.62 136.19 1132.85 136.84 1133.73 137.66C1134.61 138.48 1135.05 139.63 1135.05 141.11Z" fill="#222222"/>
<path d="M950.85 62.27C950.85 70.1167 948.1 76.8267 942.6 82.4C937.1 87.9 930.427 90.65 922.58 90.65C915.393 90.65 909.013 88.12 903.44 83.06C897.94 78 895.043 71.9133 894.75 64.8H909.38C910.04 68.32 911.47 71.2167 913.67 73.49C915.943 75.69 918.803 76.79 922.25 76.79C926.283 76.79 929.62 75.3967 932.26 72.61C934.9 69.75 936.22 66.3033 936.22 62.27C936.22 58.4567 934.863 55.12 932.15 52.26C929.51 49.4 926.283 47.97 922.47 47.97C918.143 47.97 914.477 49.9133 911.47 53.8L898.38 50.17L906.08 7.6H942.93V21.46H917.08L914.44 36.42C917.96 34.88 921.443 34.11 924.89 34.11C932.297 34.11 938.457 36.9333 943.37 42.58C948.357 48.2267 950.85 54.79 950.85 62.27ZM1009.54 33.34V63.37C1009.54 71.3633 1006.98 77.9267 1001.84 83.06C996.783 88.12 990.256 90.65 982.263 90.65C974.343 90.65 967.449 87.68 961.583 81.74C957.109 77.1933 954.873 70.8133 954.873 62.6V33.34C954.873 25.1267 957.439 18.5267 962.573 13.54C967.779 8.47999 974.489 5.94999 982.703 5.94999C990.476 5.94999 996.893 8.58999 1001.95 13.87C1007.01 19.0767 1009.54 25.5667 1009.54 33.34ZM994.913 62.05V33.45C994.913 29.71 993.739 26.52 991.393 23.88C989.046 21.1667 986.039 19.81 982.373 19.81C978.339 19.81 975.186 21.1667 972.913 23.88C970.639 26.52 969.503 29.8933 969.503 34V61.72C969.503 66.0467 970.566 69.64 972.693 72.5C974.893 75.36 978.083 76.79 982.263 76.79C986.443 76.79 989.596 75.4333 991.723 72.72C993.849 69.9333 994.913 66.3767 994.913 62.05Z" fill="#222222"/>
<path d="M1075.05 50.91H1051.07V75H1043.59V50.91H1019.61V43.43H1043.59V19.34H1051.07V43.43H1075.05V50.91Z" fill="#EC2232"/>
<rect x="352" width="1" height="154" fill="#C4C4C4"/>
<rect x="763" width="1" height="154" fill="#C4C4C4"/>
</svg>
